<?xml version="1.0" encoding="iso-8859-1"?>
<!-- Generator: Adobe Illustrator 16.0.0, SVG Export Plug-In . SVG Version: 6.00 Build 0)  -->
<!DOCTYPE svg PUBLIC "-//W3C//DTD SVG 1.1//EN" "http://www.w3.org/Graphics/SVG/1.1/DTD/svg11.dtd">
<svg version="1.1" id="Capa_1" xmlns="http://www.w3.org/2000/svg" xmlns:xlink="http://www.w3.org/1999/xlink" x="0px" y="0px"
	 width="46.149px" height="46.149px" viewBox="0 0 46.149 46.149" style="enable-background:new 0 0 46.149 46.149;"
	 xml:space="preserve">
<g>
	<g>
		<g>
			<path d="M46.051,17.724c-0.22-0.674-0.778-1.182-1.472-1.335l-13.024-2.871L24.799,2.019c-0.358-0.611-1.017-0.987-1.726-0.987
				c-0.709,0-1.365,0.375-1.725,0.987l-6.754,11.499L1.569,16.389c-0.692,0.153-1.252,0.661-1.472,1.335
				c-0.219,0.674-0.064,1.415,0.406,1.945l8.849,9.979L8.061,42.922c-0.069,0.706,0.241,1.396,0.814,1.812
				c0.348,0.252,0.76,0.383,1.176,0.383c0.271,0,0.543-0.055,0.8-0.167l12.224-5.332L35.3,44.95
				c0.649,0.282,1.399,0.202,1.977-0.216c0.572-0.416,0.885-1.105,0.813-1.812l-1.294-13.273l8.849-9.979
				C46.115,19.139,46.27,18.398,46.051,17.724z M33.225,27.647c-0.368,0.416-0.549,0.967-0.493,1.521l1.048,10.754l-9.904-4.318
				c-0.255-0.11-0.527-0.166-0.8-0.166s-0.545,0.056-0.8,0.166l-9.903,4.318l1.048-10.754c0.055-0.554-0.125-1.104-0.494-1.521
				l-7.17-8.084l10.552-2.327c0.543-0.12,1.012-0.46,1.294-0.94l5.473-9.316l5.475,9.316c0.282,0.479,0.751,0.82,1.294,0.94
				l10.553,2.327L33.225,27.647z"/>
			<circle cx="23.313" cy="24.074" r="2.239"/>
			<circle cx="29.152" cy="22.69" r="1.349"/>
			<circle cx="34.017" cy="21.537" r="0.909"/>
			<circle cx="26.464" cy="29.18" r="1.348"/>
			<circle cx="29.09" cy="33.436" r="0.909"/>
			<circle cx="23.313" cy="18.074" r="1.349"/>
			<circle cx="23.313" cy="13.074" r="0.909"/>
			<circle cx="17.476" cy="22.69" r="1.349"/>
			<circle cx="12.609" cy="21.537" r="0.909"/>
			<circle cx="20.163" cy="29.18" r="1.348"/>
			<circle cx="17.538" cy="33.436" r="0.909"/>
		</g>
	</g>
</g>
<g>
</g>
<g>
</g>
<g>
</g>
<g>
</g>
<g>
</g>
<g>
</g>
<g>
</g>
<g>
</g>
<g>
</g>
<g>
</g>
<g>
</g>
<g>
</g>
<g>
</g>
<g>
</g>
<g>
</g>
</svg>
