<?xml version="1.0" encoding="iso-8859-1"?>
<!-- Generator: Adobe Illustrator 16.0.0, SVG Export Plug-In . SVG Version: 6.00 Build 0)  -->
<!DOCTYPE svg PUBLIC "-//W3C//DTD SVG 1.1//EN" "http://www.w3.org/Graphics/SVG/1.1/DTD/svg11.dtd">
<svg version="1.1" id="Capa_1" xmlns="http://www.w3.org/2000/svg" xmlns:xlink="http://www.w3.org/1999/xlink" x="0px" y="0px"
	 width="45.661px" height="45.661px" viewBox="0 0 45.661 45.661" style="enable-background:new 0 0 45.661 45.661;"
	 xml:space="preserve">
<g>
	<g>
		<path d="M19.227,26.94c-1.021-1.298-1.445-3.054-1.047-4.618c-2.364-5.498-5.057-10.736-8.233-13.027c0,0,6.731,0.864,9.967,9.5
			c0.69-1.731,1.004-3.688,0.826-5.744c-0.46-5.33-4.347-9.704-9.16-10.294C5.309,1.99,0,7.399,0,14.18
			c0,1.526,0.252,3.464,0.633,5.527C2.586,11.268,8.737,9.405,8.737,9.405C5.551,12.628,3.658,19.639,2.13,26.364
			c0.782,3.067,1.56,5.74,1.897,7.027c0.712,2.715,1.498,5.812,3.528,7.529c5.754,4.865,14.026,0.619,13.788-7.717
			C21.275,30.809,20.545,28.618,19.227,26.94z"/>
		<path d="M45.027,19.707c0.381-2.063,0.634-4.001,0.634-5.527c0-6.78-5.31-12.189-11.58-11.423c-4.813,0.59-8.7,4.964-9.16,10.294
			c-0.177,2.057,0.138,4.013,0.826,5.744c3.235-8.636,9.967-9.5,9.967-9.5c-3.176,2.291-5.868,7.529-8.231,13.027
			c0.397,1.564-0.026,3.32-1.049,4.618c-1.317,1.677-2.047,3.867-2.117,6.264c-0.236,8.336,8.035,12.583,13.789,7.717
			c2.031-1.717,2.815-4.814,3.528-7.529c0.339-1.288,1.114-3.96,1.897-7.027c-1.529-6.726-3.422-13.736-6.607-16.959
			C36.924,9.405,43.075,11.268,45.027,19.707z"/>
	</g>
</g>
<g>
</g>
<g>
</g>
<g>
</g>
<g>
</g>
<g>
</g>
<g>
</g>
<g>
</g>
<g>
</g>
<g>
</g>
<g>
</g>
<g>
</g>
<g>
</g>
<g>
</g>
<g>
</g>
<g>
</g>
</svg>
